<svg xmlns="http://www.w3.org/2000/svg" xmlns:xlink="http://www.w3.org/1999/xlink" id="Capa_1" x="0px" y="0px" viewBox="0 0 56.48 56.48" style="enable-background:new 0 0 56.48 56.48;" xml:space="preserve"><g>	<g>		<path d="M55.026,9.939H1.454C0.65,9.939,0,10.59,0,11.393v33.695c0,0.803,0.65,1.454,1.454,1.454h53.572    c0.804,0,1.454-0.651,1.454-1.454V11.393C56.48,10.59,55.83,9.939,55.026,9.939z M52.184,26.254l-0.779,0.703l-0.703-0.781    l0.78-0.703L52.184,26.254z M48.172,25.573l-1.055-1.172l1.172-1.055l1.055,1.172L48.172,25.573z M49.368,25.702l1.056,1.171    l-1.172,1.055l-1.055-1.171L49.368,25.702z M47.219,25.314l-1.562,1.406l-1.405-1.562l1.562-1.406L47.219,25.314z M46.93,26.417    l1.406,1.562l-1.562,1.405l-1.406-1.562L46.93,26.417z M48.041,29.117l1.406,1.562l-1.562,1.408l-1.406-1.562L48.041,29.117z     M49.198,29.232l1.172-1.056l1.056,1.172l-1.172,1.055L49.198,29.232z M51.188,23.932l-0.781,0.703l-0.703-0.781l0.781-0.703    L51.188,23.932z M8.19,30.846H7.38l-1.019-3.739H6.308l-0.989,3.739h-0.81l-1.214-5.312h0.84l0.839,3.964h0.053l0.974-3.964h0.667    l1.042,3.964h0.053l0.765-3.964h0.877L8.19,30.846z M12.838,29.117h-2.442c0,0.898,0.367,1.297,1.139,1.297    c0.404,0,0.779-0.143,1.191-0.39v0.569c-0.337,0.194-0.787,0.345-1.326,0.345c-1.259,0-1.776-0.779-1.776-1.964    c0-1.139,0.577-1.962,1.701-1.962c0.937,0,1.514,0.607,1.514,1.83L12.838,29.117z M14.981,30.937    c-0.397,0-1.012-0.128-1.462-0.367v-5.23l0.779-0.187v2.136c0.226-0.12,0.607-0.277,1.013-0.277c0.929,0,1.431,0.645,1.431,1.844    C16.742,30.257,16.068,30.937,14.981,30.937z M22.724,30.846h-0.002h-0.809v-3.852h-0.067l-1.529,3.852h-0.479l-1.529-3.762    h-0.067v3.762h-0.674v-5.312h0.906l1.679,4.189h0.038l1.604-4.189h0.929V30.846z M25.256,30.937c-1.026,0-1.709-0.683-1.709-1.964    c0-1.312,0.72-1.962,1.709-1.962c0.989,0,1.709,0.652,1.709,1.962C26.965,30.257,26.283,30.937,25.256,30.937z M30.824,30.846    h-0.779v-2.541c0-0.591-0.291-0.696-0.675-0.696c-0.3,0-0.682,0.135-0.914,0.27v2.967h-0.779v-3.282    c0.337-0.202,1.049-0.554,1.911-0.554c0.899,0,1.236,0.352,1.236,1.124V30.846z M34.736,29.117h-2.443    c0,0.898,0.367,1.297,1.141,1.297c0.404,0,0.779-0.143,1.19-0.39v0.569c-0.338,0.194-0.786,0.345-1.327,0.345    c-1.259,0-1.774-0.779-1.774-1.964c0-1.139,0.577-1.962,1.7-1.962c0.938,0,1.515,0.607,1.515,1.83L34.736,29.117z M37.096,30.885    c-0.375,1.033-0.832,1.573-1.692,1.573v-0.614c0.51,0,0.823-0.404,1.004-0.959l-1.438-3.748h0.824l0.959,2.758h0.045l0.854-2.758    h0.802L37.096,30.885z M49.803,33.952c-0.955,0.545-2.062,0.856-3.237,0.856c-3.617,0-6.568-2.95-6.568-6.567    c0-3.617,2.951-6.568,6.568-6.568c1.03,0,2.008,0.24,2.878,0.666c0.137,0.065,0.273,0.137,0.408,0.215l-0.604,0.541l-0.908-0.939    l-1.533,1.368l-0.909-0.994l-2.857,2.574l1.831,2.019l-0.72,0.632l1.804,2.021l-0.716,0.632l2.578,2.869l1.528-1.408l1.322,1.51    C50.406,33.581,50.12,33.773,49.803,33.952z M51.284,32.768l-1.056-1.17l1.172-1.056l1.055,1.171L51.284,32.768z M52.402,29.276    l-0.703-0.781l0.781-0.703l0.703,0.781L52.402,29.276z"></path>	</g></g><g>	<g>		<path d="M25.256,27.536c-0.494,0-0.922,0.426-0.922,1.438c0,1.027,0.39,1.439,0.922,1.439c0.532,0,0.922-0.412,0.922-1.439    C26.178,27.961,25.765,27.536,25.256,27.536z"></path>	</g></g><g>	<g>		<path d="M15.108,27.596c-0.298,0-0.516,0.082-0.816,0.247v2.451c0.24,0.105,0.501,0.12,0.689,0.12    c0.555,0,0.975-0.345,0.975-1.559C15.956,27.903,15.61,27.596,15.108,27.596z"></path>	</g></g><g>	<g>		<path d="M33.2,27.513c-0.458,0-0.81,0.352-0.894,1.101h1.718C33.987,27.828,33.604,27.513,33.2,27.513z"></path>	</g></g><g>	<g>		<path d="M11.302,27.513c-0.457,0-0.81,0.352-0.892,1.101h1.716C12.089,27.828,11.707,27.513,11.302,27.513z"></path>	</g></g><g></g><g></g><g></g><g></g><g></g><g></g><g></g><g></g><g></g><g></g><g></g><g></g><g></g><g></g><g></g></svg>